<svg width="24" height="24" viewBox="0 0 24 24" fill="none" xmlns="http://www.w3.org/2000/svg">
<path d="M6.21942 6.22897C6.35996 6.08836 6.55055 6.00938 6.74927 6.00938C6.948 6.00938 7.13858 6.08836 7.27912 6.22897L11.9953 10.9487L16.7115 6.22897C16.7806 6.15733 16.8633 6.1002 16.9548 6.06089C17.0462 6.02158 17.1445 6.00089 17.2441 6.00003C17.3436 5.99916 17.4422 6.01814 17.5344 6.05585C17.6265 6.09356 17.7101 6.14925 17.7805 6.21967C17.8509 6.29009 17.9065 6.37383 17.9442 6.466C17.9819 6.55817 18.0008 6.65693 18 6.75652C17.9991 6.8561 17.9784 6.95452 17.9392 7.04602C17.8999 7.13752 17.8428 7.22028 17.7712 7.28947L13.055 12.0092L17.7712 16.729C17.9077 16.8704 17.9833 17.0599 17.9816 17.2565C17.9798 17.4532 17.901 17.6413 17.7621 17.7803C17.6231 17.9194 17.4352 17.9983 17.2387 18C17.0422 18.0017 16.8529 17.9261 16.7115 17.7895L11.9953 13.0697L7.27912 17.7895C7.13778 17.9261 6.94847 18.0017 6.75197 18C6.55547 17.9983 6.3675 17.9194 6.22855 17.7803C6.0896 17.6413 6.01078 17.4532 6.00908 17.2565C6.00737 17.0599 6.08291 16.8704 6.21942 16.729L10.9356 12.0092L6.21942 7.28947C6.07893 7.14882 6 6.95809 6 6.75922C6 6.56034 6.07893 6.36961 6.21942 6.22897Z" fill="#464E5F"/>
</svg>
