<svg width="91" height="90" viewBox="0 0 91 90" fill="none" xmlns="http://www.w3.org/2000/svg">
<g clip-path="url(#clip0_7450_113406)">
<path d="M45.499 82.502C66.2097 82.502 82.999 65.7126 82.999 45.002C82.999 24.2913 66.2097 7.50195 45.499 7.50195C24.7883 7.50195 7.99902 24.2913 7.99902 45.002C7.99902 65.7126 24.7883 82.502 45.499 82.502Z" fill="#BC2228"/>
<path fill-rule="evenodd" clip-rule="evenodd" d="M31.5983 31.0983C33.0628 29.6339 35.4372 29.6339 36.9017 31.0983L45.5 40.3125L54.0984 31.0983C55.5628 29.6339 57.9372 29.6339 59.4017 31.0983C60.8661 32.5628 60.8661 34.9372 59.4017 36.4017L50.1875 45L59.4017 53.5984C60.8661 55.0628 60.8661 57.4372 59.4017 58.9017C57.9372 60.3661 55.5628 60.3661 54.0984 58.9017L45.5 49.6875L36.9017 58.9017C35.4372 60.3661 33.0628 60.3661 31.5983 58.9017C30.1339 57.4372 30.1339 55.0628 31.5983 53.5984L40.8125 45L31.5983 36.4017C30.1339 34.9372 30.1339 32.5628 31.5983 31.0983Z" fill="white"/>
</g>
<defs>
<clipPath id="clip0_7450_113406">
<rect width="75" height="75" fill="white" transform="translate(8 7.5)"/>
</clipPath>
</defs>
</svg>
